<svg width="96" height="96" viewBox="0 0 96 96" fill="none" xmlns="http://www.w3.org/2000/svg">
<rect width="96" height="96" rx="48" fill="#356DF3"/>
<path d="M70.2502 29.4845L51.5384 19.5643C49.2404 18.3436 46.5013 18.3436 44.2034 19.5541L25.2966 29.5153C22.4447 31.2285 19.7774 33.2495 19.6646 39.138V43.8877H27.02V37.394L47.876 26.2735L68.5781 37.394V43.8877H75.9336V39.138C75.8105 33.2187 73.1227 31.208 70.2502 29.4845Z" fill="white"/>
<path d="M68.5678 58.681L51.5486 68.2113V60.5173C57.5294 59.1119 61.4688 54.239 61.4688 47.7247C61.4688 39.8255 56.0112 34.5217 47.876 34.5217C39.7408 34.5217 34.2832 39.8255 34.2832 47.7247C34.2832 54.2492 38.2123 59.1119 44.2034 60.5173V68.2216L27.0303 58.681V51.582H19.6646V56.3215C19.7877 62.1997 22.4447 64.231 25.2966 65.9442L44.2034 75.9054C46.5013 77.1159 49.2507 77.1159 51.5384 75.8951L70.24 65.9749C73.1124 64.2617 75.8105 62.2408 75.9233 56.3215V51.582H68.5678V58.681ZM41.1155 47.7247C41.1155 43.3955 43.516 41.0155 47.876 41.0155C52.236 41.0155 54.6365 43.3955 54.6365 47.7247C54.6365 51.9205 52.1128 54.4339 47.876 54.4339C43.6392 54.4339 41.1155 51.9308 41.1155 47.7247Z" fill="white"/>
</svg>
