<svg xmlns="http://www.w3.org/2000/svg" viewBox="0 0 32 32">
  <defs>
    <linearGradient id="btc-gradient" x1="0%" y1="0%" x2="100%" y2="100%">
      <stop offset="0%" style="stop-color:#f7931a"/>
      <stop offset="100%" style="stop-color:#ff6500"/>
    </linearGradient>
  </defs>
  <circle cx="16" cy="16" r="16" fill="url(#btc-gradient)"/>
  <path fill="white" d="M22.5 14.2c.3-2-1.2-3.1-3.3-3.8l.7-2.7-1.7-.4-.7 2.6c-.4-.1-.9-.2-1.4-.3l.7-2.7-1.7-.4-.7 2.7c-.4-.1-.7-.1-1.1-.2v0l-2.3-.6-.4 1.8s1.2.3 1.2.3c.7.2.8.7.8 1.1l-.8 3.2c0 .1.1.1.1.2h-.1l-1.1 4.4c-.1.2-.3.6-.8.4 0 0-1.2-.3-1.2-.3l-.8 1.9 2.2.5c.4.1.8.2 1.2.3l-.7 2.8 1.7.4.7-2.8c.5.1.9.2 1.4.3l-.7 2.7 1.7.4.7-2.8c3 .6 5.2.3 6.2-2.4.8-2.2-.0-3.5-1.6-4.3 1.1-.3 2-1.1 2.2-2.8zm-4 5.6c-.5 2.1-4.1.9-5.3.7l.9-3.7c1.2.3 4.9.9 4.4 3zm.5-5.6c-.5 1.9-3.5.9-4.5.7l.8-3.3c1 .2 4.1.7 3.7 2.6z"/>
</svg>
