<svg xmlns="http://www.w3.org/2000/svg" width="225" height="225" viewBox="0 0 225 225">
<g>
<path d="M 0.00 0.00 L 225.00 0.00 L 225.00 225.00 L 0.00 225.00 ZM 137.58 102.62 L 138.90 105.74 L 151.20 102.39 C165.65,98.45 166.00,98.41 166.00,100.94 C166.00,102.01 166.40,103.13 166.89,103.43 C167.82,104.01 185.32,101.59 190.50,100.18 C191.79,99.82 192.58,99.63 192.98,99.13 C193.60,98.38 193.36,96.92 192.73,93.15 C192.71,93.02 192.69,92.89 192.67,92.75 C191.68,86.79 191.21,86.77 176.21,91.90 L 164.93 95.77 L 163.46 92.26 C162.66,90.33 162.00,88.46 162.00,88.09 C162.00,87.73 166.99,84.97 173.08,81.96 C179.18,78.96 184.57,76.01 185.06,75.42 C186.05,74.24 180.75,65.00 179.08,65.00 C178.18,65.00 166.87,72.83 159.94,78.25 C157.10,80.47 156.93,80.91 158.13,82.83 L 158.14 82.85 C158.58,83.56 158.91,84.08 158.90,84.60 C158.89,85.99 156.47,87.37 147.50,92.48 C142.00,95.62 137.22,98.48 136.88,98.84 C136.54,99.20 136.85,100.90 137.58,102.62 ZM 125.12 188.79 C125.95,193.01 126.50,193.99 127.83,193.60 C128.75,193.33 131.19,192.81 133.26,192.44 C135.33,192.07 137.28,191.36 137.59,190.85 C137.91,190.34 136.29,184.28 134.00,177.38 C131.71,170.48 129.99,164.72 130.17,164.59 C132.02,163.24 137.28,161.89 137.95,162.61 C138.41,163.10 141.45,168.55 144.71,174.71 L 150.63 185.92 L 155.83 182.72 C158.83,180.88 160.83,178.99 160.55,178.27 C160.18,177.32 152.50,166.63 145.31,157.08 C145.14,156.85 143.87,157.27 142.50,158.00 C141.13,158.73 139.86,159.15 139.69,158.92 C139.51,158.69 136.53,153.55 133.06,147.50 C129.58,141.45 126.66,136.40 126.55,136.27 C126.22,135.85 120.00,138.42 120.01,138.97 C120.02,139.26 121.55,145.20 123.42,152.18 C125.29,159.15 126.55,165.11 126.24,165.43 C125.92,165.74 124.84,166.00 123.83,166.00 C121.17,166.00 121.38,169.78 125.12,188.79 ZM 92.66 77.75 C96.24,83.94 99.56,89.00 100.04,89.00 C102.08,89.00 106.04,86.55 105.65,85.53 C105.06,83.99 99.00,61.23 99.00,60.55 C99.00,60.25 99.56,59.99 100.25,59.98 C103.80,59.94 104.26,58.46 103.09,50.87 C100.81,36.13 99.77,32.00 98.31,32.00 C95.00,32.00 88.00,34.33 88.00,35.43 C88.00,36.51 93.87,55.14 95.45,59.08 C95.92,60.25 95.03,61.08 92.02,62.26 L 87.95 63.86 L 81.97 51.93 C78.68,45.37 75.47,40.00 74.85,40.00 C73.36,40.00 65.00,45.29 65.00,46.23 C65.00,46.63 68.48,51.72 72.74,57.54 C77.88,64.57 80.98,67.96 81.99,67.68 C82.82,67.44 84.10,67.08 84.83,66.87 C85.64,66.64 88.66,70.83 92.66,77.75 ZM 43.09 155.99 C45.13,159.31 46.59,160.75 47.41,160.25 C48.10,159.84 53.23,156.16 58.83,152.08 C68.84,144.77 68.98,144.61 67.47,142.32 C67.03,141.64 66.63,141.18 66.61,140.71 C66.53,139.45 68.97,138.04 79.56,131.95 C80.40,131.46 81.30,130.95 82.26,130.40 L 90.01 125.92 L 88.48 122.96 C87.64,121.33 86.59,120.00 86.15,120.00 C85.71,120.00 80.54,121.35 74.66,123.00 C61.90,126.58 60.00,126.71 60.00,124.00 C60.00,122.59 59.33,122.00 57.75,121.99 C54.05,121.98 34.32,125.18 32.99,126.01 C32.00,126.62 32.00,127.83 32.97,131.89 C33.65,134.70 34.54,137.22 34.96,137.47 C35.37,137.73 41.17,136.15 47.85,133.97 C54.52,131.79 60.20,130.00 60.48,130.00 C61.03,130.00 64.18,137.19 63.76,137.52 C63.62,137.63 58.21,140.52 51.75,143.94 C45.29,147.37 40.00,150.35 40.00,150.57 C40.00,150.79 41.39,153.23 43.09,155.99 ZM 31.00 107.06 L 31.00 113.00 L 85.77 113.00 L 86.28 109.75 C86.56,107.96 86.50,106.21 86.14,105.85 C84.99,104.68 61.75,98.88 60.36,99.42 C59.61,99.70 59.00,100.60 59.00,101.41 C59.00,102.22 58.59,103.13 58.09,103.44 C57.59,103.75 51.72,103.09 45.05,101.97 C38.38,100.85 32.49,100.20 31.96,100.53 C31.43,100.85 31.00,103.79 31.00,107.06 ZM 78.02 92.45 L 89.50 99.02 L 91.74 96.26 L 93.98 93.50 L 74.45 74.00 L 54.92 54.50 L 50.96 58.71 C48.78,61.03 47.00,63.37 47.00,63.92 C47.00,64.46 51.50,68.12 57.00,72.05 C62.50,75.97 67.24,79.58 67.53,80.05 C67.83,80.53 67.51,81.82 66.82,82.91 C66.14,84.01 65.79,85.13 66.06,85.39 C66.32,85.66 71.71,88.83 78.02,92.45 ZM 128.34 90.90 C129.50,92.06 130.91,93.00 131.48,93.00 C132.05,93.00 141.21,84.30 151.82,73.68 L 171.13 54.35 L 167.06 50.68 C164.82,48.65 162.36,47.00 161.59,47.00 C160.82,47.00 156.95,51.50 153.00,57.00 C145.29,67.73 144.48,68.58 143.51,67.02 C142.03,64.62 139.36,66.26 136.58,71.25 C134.97,74.14 131.99,79.27 129.95,82.65 L 126.25 88.80 ZM 59.55 174.75 C62.10,177.09 64.35,179.00 64.53,179.00 C64.72,179.00 68.33,174.16 72.57,168.25 C76.81,162.34 80.40,157.35 80.55,157.17 C80.70,156.99 81.90,157.55 83.22,158.41 C85.61,159.97 85.61,159.97 92.05,148.74 C95.60,142.56 98.63,137.00 98.80,136.39 C98.96,135.79 97.89,134.50 96.41,133.54 L 93.74 131.78 L 74.32 151.14 L 54.90 170.50 ZM 151.32 150.75 C161.86,161.34 170.77,170.00 171.12,170.00 C172.02,170.00 179.00,162.18 179.00,161.18 C179.00,160.73 174.11,156.80 168.12,152.45 C157.46,144.70 157.28,144.51 158.76,142.24 C159.59,140.98 160.10,139.79 159.89,139.61 C157.99,137.98 137.77,127.00 136.67,127.00 C135.89,127.00 134.55,128.01 133.70,129.25 C132.19,131.44 132.63,131.98 151.32,150.75 ZM 115.75 86.22 C117.26,86.41 118.86,86.28 119.31,85.93 C120.43,85.04 126.94,60.28 126.24,59.57 C125.92,59.26 124.78,59.00 123.69,59.00 C121.89,59.00 121.77,58.51 122.32,53.25 C122.65,50.09 123.55,43.79 124.32,39.25 L 125.72 31.00 L 113.00 31.00 L 113.00 85.87 ZM 103.50 194.31 C104.60,194.59 107.07,194.74 109.00,194.66 L 112.50 194.50 L 112.50 139.50 L 105.54 139.50 L 102.29 151.50 C98.44,165.72 98.42,166.00 101.03,166.00 C102.15,166.00 103.30,166.61 103.58,167.35 C103.87,168.10 103.20,174.06 102.11,180.60 C101.01,187.15 100.42,192.79 100.80,193.15 C101.19,193.51 102.40,194.03 103.50,194.31 ZM 150.20 122.75 C163.91,126.49 165.60,126.62 166.29,124.00 C166.94,121.52 168.42,121.49 182.23,123.68 C188.13,124.62 193.22,125.12 193.54,124.80 C193.86,124.47 194.38,121.68 194.70,118.59 L 195.28 112.97 L 167.39 113.23 L 139.50 113.50 L 139.20 116.58 L 138.90 119.67 ZM 48.00 91.77 C54.88,93.99 60.77,95.51 61.09,95.15 C62.04,94.10 64.31,87.97 63.88,87.58 C62.22,86.05 40.53,75.97 39.63,76.31 C38.49,76.75 34.42,86.80 35.13,87.42 C35.33,87.60 41.12,89.56 48.00,91.77 ZM 81.25 188.38 C84.14,189.67 86.81,190.55 87.18,190.34 C87.89,189.95 96.21,164.85 95.76,164.47 C95.10,163.92 89.04,161.00 88.56,161.00 C88.02,161.00 76.00,184.46 76.00,185.50 C76.00,185.80 78.36,187.09 81.25,188.38 ZM 173.27 143.27 C180.00,146.73 185.85,149.29 186.28,148.95 C187.59,147.92 191.01,138.12 190.23,137.66 C189.01,136.94 166.53,130.00 165.41,130.00 C164.84,130.00 163.62,131.57 162.71,133.48 L 161.05 136.96 ZM 133.25 62.42 C135.04,63.20 136.73,63.87 137.02,63.92 C137.30,63.96 140.32,58.42 143.71,51.60 L 149.89 39.20 L 144.85 37.03 C142.07,35.84 139.26,35.07 138.60,35.32 C137.61,35.70 129.99,57.77 130.00,60.25 C130.00,60.66 131.46,61.63 133.25,62.42 Z" fill="rgb(0,0,0)"/>
<path d="M 103.50 194.31 C102.40,194.03 101.19,193.51 100.80,193.15 C100.42,192.79 101.01,187.15 102.11,180.60 C103.20,174.06 103.87,168.10 103.58,167.35 C103.30,166.61 102.15,166.00 101.03,166.00 C98.42,166.00 98.44,165.72 102.29,151.50 L 105.54 139.50 L 109.02 139.50 L 112.50 139.50 L 112.50 167.00 L 112.50 194.50 L 109.00 194.66 C107.07,194.74 104.60,194.59 103.50,194.31 ZM 125.12 188.79 C121.38,169.78 121.17,166.00 123.83,166.00 C124.84,166.00 125.92,165.74 126.24,165.43 C126.55,165.11 125.29,159.15 123.42,152.18 C121.55,145.20 120.02,139.26 120.01,138.97 C120.00,138.42 126.22,135.85 126.55,136.27 C126.66,136.40 129.58,141.45 133.06,147.50 C136.53,153.55 139.51,158.69 139.69,158.92 C139.86,159.15 141.13,158.73 142.50,158.00 C143.87,157.27 145.14,156.85 145.31,157.08 C152.50,166.63 160.18,177.32 160.55,178.27 C160.83,178.99 158.83,180.88 155.83,182.72 L 150.63 185.92 L 144.71 174.71 C141.45,168.55 138.41,163.10 137.95,162.61 C137.28,161.89 132.02,163.24 130.17,164.59 C129.99,164.72 131.71,170.48 134.00,177.38 C136.29,184.28 137.91,190.34 137.59,190.85 C137.28,191.36 135.33,192.07 133.26,192.44 C131.19,192.81 128.75,193.33 127.83,193.60 C126.50,193.99 125.95,193.01 125.12,188.79 ZM 81.25 188.38 C78.36,187.09 76.00,185.80 76.00,185.50 C76.00,184.46 88.02,161.00 88.56,161.00 C89.04,161.00 95.10,163.92 95.76,164.47 C96.21,164.85 87.89,189.95 87.18,190.34 C86.81,190.55 84.14,189.67 81.25,188.38 ZM 59.55 174.75 L 54.90 170.50 L 74.32 151.14 L 93.74 131.78 L 96.41 133.54 C97.89,134.50 98.96,135.79 98.80,136.39 C98.63,137.00 95.60,142.56 92.05,148.74 C85.61,159.97 85.61,159.97 83.22,158.41 C81.90,157.55 80.70,156.99 80.55,157.17 C80.40,157.35 76.81,162.34 72.57,168.25 C68.33,174.16 64.72,179.00 64.53,179.00 C64.35,179.00 62.10,177.09 59.55,174.75 ZM 151.32 150.75 C132.63,131.98 132.19,131.44 133.70,129.25 C134.55,128.01 135.89,127.00 136.67,127.00 C137.77,127.00 157.99,137.98 159.89,139.61 C160.10,139.79 159.59,140.98 158.76,142.24 C157.28,144.51 157.46,144.70 168.12,152.45 C174.11,156.80 179.00,160.73 179.00,161.18 C179.00,162.18 172.02,170.00 171.12,170.00 C170.77,170.00 161.86,161.34 151.32,150.75 ZM 43.09 155.99 C41.39,153.23 40.00,150.79 40.00,150.57 C40.00,150.35 45.29,147.37 51.75,143.94 C58.21,140.52 63.62,137.63 63.76,137.52 C64.18,137.19 61.03,130.00 60.48,130.00 C60.20,130.00 54.52,131.79 47.85,133.97 C41.17,136.15 35.37,137.73 34.96,137.47 C34.54,137.22 33.65,134.70 32.97,131.89 C32.00,127.83 32.00,126.62 32.99,126.01 C34.32,125.18 54.05,121.98 57.75,121.99 C59.33,122.00 60.00,122.59 60.00,124.00 C60.00,126.71 61.90,126.58 74.66,123.00 C80.54,121.35 85.71,120.00 86.15,120.00 C86.59,120.00 87.64,121.33 88.48,122.96 L 90.01 125.92 L 82.26 130.40 C64.85,140.43 65.76,139.70 67.47,142.32 C68.98,144.61 68.84,144.77 58.83,152.08 C53.23,156.16 48.10,159.84 47.41,160.25 C46.59,160.75 45.13,159.31 43.09,155.99 ZM 173.27 143.27 L 161.05 136.96 L 162.71 133.48 C163.62,131.57 164.84,130.00 165.41,130.00 C166.53,130.00 189.01,136.94 190.23,137.66 C191.01,138.12 187.59,147.92 186.28,148.95 C185.85,149.29 180.00,146.73 173.27,143.27 ZM 150.20 122.75 L 138.90 119.67 L 139.20 116.58 L 139.50 113.50 L 167.39 113.23 L 195.28 112.97 L 194.70 118.59 C194.38,121.68 193.86,124.47 193.54,124.80 C193.22,125.12 188.13,124.62 182.23,123.68 C168.42,121.49 166.94,121.52 166.29,124.00 C165.60,126.62 163.91,126.49 150.20,122.75 ZM 31.00 107.06 C31.00,103.79 31.43,100.85 31.96,100.53 C32.49,100.20 38.38,100.85 45.05,101.97 C51.72,103.09 57.59,103.75 58.09,103.44 C58.59,103.13 59.00,102.22 59.00,101.41 C59.00,100.60 59.61,99.70 60.36,99.42 C61.75,98.88 84.99,104.68 86.14,105.85 C86.50,106.21 86.56,107.96 86.28,109.75 L 85.77 113.00 L 58.39 113.00 L 31.00 113.00 L 31.00 107.06 ZM 137.58 102.62 C136.85,100.90 136.54,99.20 136.88,98.84 C137.22,98.48 142.00,95.62 147.50,92.48 C159.82,85.46 159.79,85.49 158.13,82.83 C156.93,80.91 157.10,80.47 159.94,78.25 C166.87,72.83 178.18,65.00 179.08,65.00 C180.75,65.00 186.05,74.24 185.06,75.42 C184.57,76.01 179.18,78.96 173.08,81.96 C166.99,84.97 162.00,87.73 162.00,88.09 C162.00,88.46 162.66,90.33 163.46,92.26 L 164.93 95.77 L 176.21 91.90 C191.21,86.77 191.68,86.79 192.67,92.75 C193.77,99.43 193.82,99.27 190.50,100.18 C185.32,101.59 167.82,104.01 166.89,103.43 C166.40,103.13 166.00,102.01 166.00,100.94 C166.00,98.41 165.65,98.45 151.20,102.39 L 138.90 105.74 L 137.58 102.62 ZM 78.02 92.45 C71.71,88.83 66.32,85.66 66.06,85.39 C65.79,85.13 66.14,84.01 66.82,82.91 C67.51,81.82 67.83,80.53 67.53,80.05 C67.24,79.58 62.50,75.97 57.00,72.05 C51.50,68.12 47.00,64.46 47.00,63.92 C47.00,63.37 48.78,61.03 50.96,58.71 L 54.92 54.50 L 74.45 74.00 L 93.98 93.50 L 91.74 96.26 L 89.50 99.02 L 78.02 92.45 ZM 48.00 91.77 C41.12,89.56 35.33,87.60 35.13,87.42 C34.42,86.80 38.49,76.75 39.63,76.31 C40.53,75.97 62.22,86.05 63.88,87.58 C64.31,87.97 62.04,94.10 61.09,95.15 C60.77,95.51 54.88,93.99 48.00,91.77 ZM 128.34 90.90 L 126.25 88.80 L 129.95 82.65 C131.99,79.27 134.97,74.14 136.58,71.25 C139.36,66.26 142.03,64.62 143.51,67.02 C144.48,68.58 145.29,67.73 153.00,57.00 C156.95,51.50 160.82,47.00 161.59,47.00 C162.36,47.00 164.82,48.65 167.06,50.68 L 171.13 54.35 L 151.82 73.68 C141.21,84.30 132.05,93.00 131.48,93.00 C130.91,93.00 129.50,92.06 128.34,90.90 ZM 92.66 77.75 C88.66,70.83 85.64,66.64 84.83,66.87 C84.10,67.08 82.82,67.44 81.99,67.68 C80.98,67.96 77.88,64.57 72.74,57.54 C68.48,51.72 65.00,46.63 65.00,46.23 C65.00,45.29 73.36,40.00 74.85,40.00 C75.47,40.00 78.68,45.37 81.97,51.93 L 87.95 63.86 L 92.02 62.26 C95.03,61.08 95.92,60.25 95.45,59.08 C93.87,55.14 88.00,36.51 88.00,35.43 C88.00,34.33 95.00,32.00 98.31,32.00 C99.77,32.00 100.81,36.13 103.09,50.87 C104.26,58.46 103.80,59.94 100.25,59.98 C99.56,59.99 99.00,60.25 99.00,60.55 C99.00,61.23 105.06,83.99 105.65,85.53 C106.04,86.55 102.08,89.00 100.04,89.00 C99.56,89.00 96.24,83.94 92.66,77.75 ZM 115.75 86.22 L 113.00 85.87 L 113.00 58.43 L 113.00 31.00 L 119.36 31.00 L 125.72 31.00 L 124.32 39.25 C123.55,43.79 122.65,50.09 122.32,53.25 C121.77,58.51 121.89,59.00 123.69,59.00 C124.78,59.00 125.92,59.26 126.24,59.57 C126.94,60.28 120.43,85.04 119.31,85.93 C118.86,86.28 117.26,86.41 115.75,86.22 ZM 133.25 62.42 C131.46,61.63 130.00,60.66 130.00,60.25 C129.99,57.77 137.61,35.70 138.60,35.32 C139.26,35.07 142.07,35.84 144.85,37.03 L 149.89 39.20 L 143.71 51.60 C140.32,58.42 137.30,63.96 137.02,63.92 C136.73,63.87 135.04,63.20 133.25,62.42 Z" fill="rgb(251,251,251)"/>
</g>
</svg>